<mxfile host="app.diagrams.net" modified="2023-05-24T23:29:21.469Z" agent="Mozilla/5.0 (Windows NT 10.0; Win64; x64) AppleWebKit/537.36 (KHTML, like Gecko) Chrome/113.0.0.0 Safari/537.36 Edg/113.0.1774.50" etag="TPKv9JPlKgl2n9f1pgfn" version="21.3.2" type="device">
  <diagram id="R2lEEEUBdFMjLlhIrx00" name="Page-1">
    <mxGraphModel dx="474" dy="763" grid="1" gridSize="10" guides="1" tooltips="1" connect="1" arrows="1" fold="1" page="1" pageScale="1" pageWidth="850" pageHeight="1100" math="0" shadow="0" extFonts="Permanent Marker^https://fonts.googleapis.com/css?family=Permanent+Marker">
      <root>
        <mxCell id="0" />
        <mxCell id="1" parent="0" />
        <mxCell id="aKm41Gk5_TG7yHkVXb_N-1" value="Cliente" style="rounded=0;whiteSpace=wrap;html=1;" vertex="1" parent="1">
          <mxGeometry x="40" y="330" width="120" height="60" as="geometry" />
        </mxCell>
        <mxCell id="aKm41Gk5_TG7yHkVXb_N-3" value="Poliza" style="rounded=0;whiteSpace=wrap;html=1;" vertex="1" parent="1">
          <mxGeometry x="630" y="330" width="120" height="60" as="geometry" />
        </mxCell>
        <mxCell id="aKm41Gk5_TG7yHkVXb_N-4" value="CompaÃ±ia de Seguros" style="rounded=0;whiteSpace=wrap;html=1;" vertex="1" parent="1">
          <mxGeometry x="350" y="40" width="120" height="60" as="geometry" />
        </mxCell>
        <mxCell id="aKm41Gk5_TG7yHkVXb_N-5" value="&lt;u&gt;ClienteID&lt;/u&gt;" style="ellipse;whiteSpace=wrap;html=1;" vertex="1" parent="1">
          <mxGeometry y="440" width="70" height="40" as="geometry" />
        </mxCell>
        <mxCell id="aKm41Gk5_TG7yHkVXb_N-6" value="Nombre" style="ellipse;whiteSpace=wrap;html=1;" vertex="1" parent="1">
          <mxGeometry x="200" y="400" width="70" height="40" as="geometry" />
        </mxCell>
        <mxCell id="aKm41Gk5_TG7yHkVXb_N-7" value="Apellido" style="ellipse;whiteSpace=wrap;html=1;" vertex="1" parent="1">
          <mxGeometry x="40" y="540" width="70" height="40" as="geometry" />
        </mxCell>
        <mxCell id="aKm41Gk5_TG7yHkVXb_N-8" value="Direccion" style="ellipse;whiteSpace=wrap;html=1;" vertex="1" parent="1">
          <mxGeometry x="220" y="540" width="70" height="40" as="geometry" />
        </mxCell>
        <mxCell id="aKm41Gk5_TG7yHkVXb_N-9" value="Telefono" style="ellipse;whiteSpace=wrap;html=1;" vertex="1" parent="1">
          <mxGeometry x="120" y="470" width="70" height="40" as="geometry" />
        </mxCell>
        <mxCell id="aKm41Gk5_TG7yHkVXb_N-10" value="Correo" style="ellipse;whiteSpace=wrap;html=1;" vertex="1" parent="1">
          <mxGeometry x="230" y="460" width="70" height="40" as="geometry" />
        </mxCell>
        <mxCell id="aKm41Gk5_TG7yHkVXb_N-11" value="&lt;u&gt;Poliza ID&lt;/u&gt;" style="ellipse;whiteSpace=wrap;html=1;" vertex="1" parent="1">
          <mxGeometry x="730" y="500" width="70" height="40" as="geometry" />
        </mxCell>
        <mxCell id="aKm41Gk5_TG7yHkVXb_N-12" value="Prima" style="ellipse;whiteSpace=wrap;html=1;" vertex="1" parent="1">
          <mxGeometry x="765" y="410" width="70" height="40" as="geometry" />
        </mxCell>
        <mxCell id="aKm41Gk5_TG7yHkVXb_N-13" value="Cobertura" style="ellipse;whiteSpace=wrap;html=1;" vertex="1" parent="1">
          <mxGeometry x="620" y="430" width="70" height="40" as="geometry" />
        </mxCell>
        <mxCell id="aKm41Gk5_TG7yHkVXb_N-14" value="" style="endArrow=none;html=1;rounded=0;entryX=0.25;entryY=1;entryDx=0;entryDy=0;exitX=0.5;exitY=0;exitDx=0;exitDy=0;" edge="1" parent="1" source="aKm41Gk5_TG7yHkVXb_N-13" target="aKm41Gk5_TG7yHkVXb_N-3">
          <mxGeometry width="50" height="50" relative="1" as="geometry">
            <mxPoint x="550" y="495" as="sourcePoint" />
            <mxPoint x="600" y="445" as="targetPoint" />
          </mxGeometry>
        </mxCell>
        <mxCell id="aKm41Gk5_TG7yHkVXb_N-15" value="" style="endArrow=none;html=1;rounded=0;entryX=0.75;entryY=1;entryDx=0;entryDy=0;exitX=0.5;exitY=0;exitDx=0;exitDy=0;" edge="1" parent="1" source="aKm41Gk5_TG7yHkVXb_N-11" target="aKm41Gk5_TG7yHkVXb_N-3">
          <mxGeometry width="50" height="50" relative="1" as="geometry">
            <mxPoint x="680" y="580" as="sourcePoint" />
            <mxPoint x="730" y="530" as="targetPoint" />
          </mxGeometry>
        </mxCell>
        <mxCell id="aKm41Gk5_TG7yHkVXb_N-16" value="" style="endArrow=none;html=1;rounded=0;entryX=1;entryY=1;entryDx=0;entryDy=0;exitX=0.414;exitY=0.05;exitDx=0;exitDy=0;exitPerimeter=0;" edge="1" parent="1" source="aKm41Gk5_TG7yHkVXb_N-12" target="aKm41Gk5_TG7yHkVXb_N-3">
          <mxGeometry width="50" height="50" relative="1" as="geometry">
            <mxPoint x="690" y="485" as="sourcePoint" />
            <mxPoint x="740" y="435" as="targetPoint" />
          </mxGeometry>
        </mxCell>
        <mxCell id="aKm41Gk5_TG7yHkVXb_N-17" value="Tener" style="rhombus;whiteSpace=wrap;html=1;" vertex="1" parent="1">
          <mxGeometry x="360" y="320" width="100" height="80" as="geometry" />
        </mxCell>
        <mxCell id="aKm41Gk5_TG7yHkVXb_N-18" value="" style="endArrow=none;html=1;rounded=0;entryX=0;entryY=0.5;entryDx=0;entryDy=0;exitX=1;exitY=0.5;exitDx=0;exitDy=0;" edge="1" parent="1" source="aKm41Gk5_TG7yHkVXb_N-1" target="aKm41Gk5_TG7yHkVXb_N-17">
          <mxGeometry width="50" height="50" relative="1" as="geometry">
            <mxPoint x="300" y="400" as="sourcePoint" />
            <mxPoint x="350" y="350" as="targetPoint" />
          </mxGeometry>
        </mxCell>
        <mxCell id="aKm41Gk5_TG7yHkVXb_N-19" value="" style="endArrow=none;html=1;rounded=0;exitX=1;exitY=0.5;exitDx=0;exitDy=0;entryX=0;entryY=0.5;entryDx=0;entryDy=0;" edge="1" parent="1" source="aKm41Gk5_TG7yHkVXb_N-17" target="aKm41Gk5_TG7yHkVXb_N-3">
          <mxGeometry width="50" height="50" relative="1" as="geometry">
            <mxPoint x="570" y="420" as="sourcePoint" />
            <mxPoint x="620" y="370" as="targetPoint" />
          </mxGeometry>
        </mxCell>
        <mxCell id="aKm41Gk5_TG7yHkVXb_N-20" value="" style="endArrow=none;html=1;rounded=0;entryX=0.357;entryY=-0.025;entryDx=0;entryDy=0;entryPerimeter=0;exitX=0.833;exitY=1.033;exitDx=0;exitDy=0;exitPerimeter=0;" edge="1" parent="1" source="aKm41Gk5_TG7yHkVXb_N-1" target="aKm41Gk5_TG7yHkVXb_N-8">
          <mxGeometry width="50" height="50" relative="1" as="geometry">
            <mxPoint x="385" y="540" as="sourcePoint" />
            <mxPoint x="435" y="490" as="targetPoint" />
          </mxGeometry>
        </mxCell>
        <mxCell id="aKm41Gk5_TG7yHkVXb_N-21" value="" style="endArrow=none;html=1;rounded=0;entryX=1;entryY=1;entryDx=0;entryDy=0;exitX=0;exitY=0.5;exitDx=0;exitDy=0;" edge="1" parent="1" source="aKm41Gk5_TG7yHkVXb_N-10" target="aKm41Gk5_TG7yHkVXb_N-1">
          <mxGeometry width="50" height="50" relative="1" as="geometry">
            <mxPoint x="150" y="470" as="sourcePoint" />
            <mxPoint x="200" y="420" as="targetPoint" />
          </mxGeometry>
        </mxCell>
        <mxCell id="aKm41Gk5_TG7yHkVXb_N-22" value="" style="endArrow=none;html=1;rounded=0;entryX=1.033;entryY=0.867;entryDx=0;entryDy=0;entryPerimeter=0;exitX=0;exitY=0;exitDx=0;exitDy=0;" edge="1" parent="1" source="aKm41Gk5_TG7yHkVXb_N-6" target="aKm41Gk5_TG7yHkVXb_N-1">
          <mxGeometry width="50" height="50" relative="1" as="geometry">
            <mxPoint x="200" y="460" as="sourcePoint" />
            <mxPoint x="220" y="470" as="targetPoint" />
          </mxGeometry>
        </mxCell>
        <mxCell id="aKm41Gk5_TG7yHkVXb_N-23" value="" style="endArrow=none;html=1;rounded=0;entryX=0.617;entryY=1.017;entryDx=0;entryDy=0;entryPerimeter=0;exitX=0.5;exitY=0;exitDx=0;exitDy=0;" edge="1" parent="1" source="aKm41Gk5_TG7yHkVXb_N-9" target="aKm41Gk5_TG7yHkVXb_N-1">
          <mxGeometry width="50" height="50" relative="1" as="geometry">
            <mxPoint x="130" y="470" as="sourcePoint" />
            <mxPoint x="180" y="420" as="targetPoint" />
          </mxGeometry>
        </mxCell>
        <mxCell id="aKm41Gk5_TG7yHkVXb_N-24" value="" style="endArrow=none;html=1;rounded=0;exitX=0.5;exitY=0;exitDx=0;exitDy=0;" edge="1" parent="1" source="aKm41Gk5_TG7yHkVXb_N-7">
          <mxGeometry width="50" height="50" relative="1" as="geometry">
            <mxPoint x="80" y="530" as="sourcePoint" />
            <mxPoint x="80" y="390" as="targetPoint" />
          </mxGeometry>
        </mxCell>
        <mxCell id="aKm41Gk5_TG7yHkVXb_N-25" value="" style="endArrow=none;html=1;rounded=0;entryX=0;entryY=1;entryDx=0;entryDy=0;exitX=0.314;exitY=0.05;exitDx=0;exitDy=0;exitPerimeter=0;" edge="1" parent="1" source="aKm41Gk5_TG7yHkVXb_N-5" target="aKm41Gk5_TG7yHkVXb_N-1">
          <mxGeometry width="50" height="50" relative="1" as="geometry">
            <mxPoint x="20" y="440" as="sourcePoint" />
            <mxPoint x="100" y="405" as="targetPoint" />
          </mxGeometry>
        </mxCell>
        <mxCell id="aKm41Gk5_TG7yHkVXb_N-26" value="" style="endArrow=none;html=1;rounded=0;entryX=0.5;entryY=1;entryDx=0;entryDy=0;exitX=0.5;exitY=0;exitDx=0;exitDy=0;" edge="1" parent="1" source="aKm41Gk5_TG7yHkVXb_N-17" target="aKm41Gk5_TG7yHkVXb_N-4">
          <mxGeometry width="50" height="50" relative="1" as="geometry">
            <mxPoint x="570" y="420" as="sourcePoint" />
            <mxPoint x="620" y="370" as="targetPoint" />
          </mxGeometry>
        </mxCell>
        <mxCell id="aKm41Gk5_TG7yHkVXb_N-27" value="&lt;font style=&quot;font-size: 18px;&quot;&gt;(1:1)&lt;/font&gt;" style="text;html=1;strokeColor=none;fillColor=none;align=center;verticalAlign=middle;whiteSpace=wrap;rounded=0;" vertex="1" parent="1">
          <mxGeometry x="570" y="320" width="60" height="30" as="geometry" />
        </mxCell>
        <mxCell id="aKm41Gk5_TG7yHkVXb_N-28" value="&lt;font style=&quot;font-size: 18px;&quot;&gt;(1:N)&lt;/font&gt;" style="text;html=1;strokeColor=none;fillColor=none;align=center;verticalAlign=middle;whiteSpace=wrap;rounded=0;" vertex="1" parent="1">
          <mxGeometry x="160" y="320" width="60" height="30" as="geometry" />
        </mxCell>
        <mxCell id="aKm41Gk5_TG7yHkVXb_N-29" value="&lt;font style=&quot;font-size: 18px;&quot;&gt;(N:1)&lt;/font&gt;" style="text;html=1;strokeColor=none;fillColor=none;align=center;verticalAlign=middle;whiteSpace=wrap;rounded=0;" vertex="1" parent="1">
          <mxGeometry x="380" y="400" width="60" height="30" as="geometry" />
        </mxCell>
      </root>
    </mxGraphModel>
  </diagram>
</mxfile>
